<svg width="14" height="13" viewBox="0 0 14 13" fill="none" xmlns="http://www.w3.org/2000/svg" stroke="currentColor" stroke-linecap="round" stroke-linejoin="round">
<path d="M1 11.1671V5.21398C1 4.76817 1.2228 4.35186 1.59373 4.10458L6.2604 0.993464C6.70827 0.694887 7.29173 0.694887 7.7396 0.993464L12.4063 4.10458C12.7772 4.35186 13 4.76817 13 5.21398V11.1671M1 11.1671C1 11.9034 1.59695 12.5004 2.33333 12.5004H11.6667C12.403 12.5004 13 11.9034 13 11.1671M1 11.1671L5.5 8.16706M13 11.1671L8.5 8.16706M1 5.16706L5.5 8.16706M13 5.16706L8.5 8.16706M8.5 8.16706L7.7396 8.674C7.29173 8.97257 6.70827 8.97257 6.2604 8.674L5.5 8.16706" />
</svg>
