<svg width="16" height="17" viewBox="0 0 16 17" fill="none" xmlns="http://www.w3.org/2000/svg" stroke="currentColor"
    stroke-linecap="round" stroke-linejoin="round">
    <path
        d="M12.7142 13.9918C10.1107 16.5953 5.88961 16.5953 3.28612 13.9918C1.98437 12.6901 1.3335 10.9839 1.3335 9.27778C1.33349 7.57162 1.98437 5.86547 3.28612 4.56372C3.28612 4.56372 3.83353 5.9444 5.5002 6.77774C5.5002 5.11107 5.91687 2.61107 7.9884 0.944443C9.66683 2.61111 11.4095 3.25898 12.7142 4.56372C14.016 5.86547 14.6668 7.57162 14.6668 9.27778C14.6668 10.9839 14.016 12.6901 12.7142 13.9918Z" />
    <path
        d="M6.23239 11.8788C7.20871 12.8551 8.79162 12.8551 9.76793 11.8788C10.2561 11.3907 10.5002 10.7509 10.5002 10.1111C10.5002 9.47128 10.2561 8.83147 9.76793 8.3433C9.28286 7.85823 8.64805 7.61417 8.0123 7.6111L7.16678 10.1111L5.50016 10.1111C5.50017 10.7509 5.74425 11.3907 6.23239 11.8788Z" />
</svg>