<svg width="41" height="32" viewBox="0 0 41 32" fill="none" xmlns="http://www.w3.org/2000/svg">
    <path
        d="M25.8767 31.0643C34.1129 31.0643 40.7896 30.1307 40.7896 28.9791C40.7896 27.8275 34.1129 26.8939 25.8767 26.8939C17.6406 26.8939 10.9639 27.8275 10.9639 28.9791C10.9639 30.1307 17.6406 31.0643 25.8767 31.0643Z"
        fill="url(#paint0_radial_1863_8137)" />
    <path
        d="M15.4129 30.4965C23.649 30.4965 30.3257 23.8935 30.3257 15.7483C30.3257 7.60302 23.649 1 15.4129 1C7.1767 1 0.5 7.60302 0.5 15.7483C0.5 23.8935 7.1767 30.4965 15.4129 30.4965Z"
        fill="url(#paint1_radial_1863_8137)" />
    <path fill-rule="evenodd" clip-rule="evenodd"
        d="M20.5972 14.2158C21.0098 13.5605 21.8113 13.3595 22.4928 13.7197C23.1404 14.0591 23.3754 14.999 22.9889 15.6151C22.8773 15.7928 22.6076 16.2232 22.2647 16.7704C21.2521 18.3865 19.6013 21.0212 19.4979 21.1733C19.2003 21.6145 18.7747 21.8573 18.2394 21.8677C18.1585 21.8695 16.3859 21.8689 14.6869 21.8683L14.6759 21.8683C13.8573 21.868 13.0566 21.8677 12.4716 21.8677C11.4402 21.8677 10.7195 20.6851 11.2757 19.7844C11.3792 19.6168 12.1969 18.2938 13.1124 16.8124L13.1345 16.7767C14.3389 14.828 15.7035 12.62 15.832 12.4118H13.341C13.3071 12.464 10.495 16.9179 10.2678 17.2807C9.85526 17.936 9.05366 18.137 8.37217 17.7768C7.72723 17.4348 7.48963 16.4949 7.87607 15.8814C7.9877 15.7037 8.25744 15.2733 8.60036 14.7259C9.613 13.1098 11.2637 10.4753 11.3671 10.3232C11.6647 9.88202 12.0903 9.63923 12.6256 9.62878C12.7156 9.62683 15.4466 9.6278 17.1572 9.62842L17.1652 9.62842C17.7329 9.62862 18.1872 9.62878 18.3935 9.62878L18.3804 9.64445C19.3778 9.69405 20.0593 10.8428 19.5136 11.7252C19.4103 11.8925 18.5947 13.2122 17.6806 14.6911L17.6788 14.694C16.4686 16.6522 15.0867 18.8881 14.9573 19.0978H17.5318V19.0952C18.0412 18.2837 18.5512 17.4722 19.0612 16.6607L19.0646 16.6554C19.5757 15.8422 20.0868 15.029 20.5972 14.2158ZM8.68549 20.1525C8.68549 21.0133 7.98759 21.7111 7.12668 21.7111C6.26577 21.7111 5.56787 21.0133 5.56787 20.1525C5.56787 19.2917 6.26577 18.5939 7.12668 18.5939C7.98759 18.5939 8.68549 19.2917 8.68549 20.1525ZM23.6991 12.8974C24.56 12.8974 25.2579 12.1996 25.2579 11.3388C25.2579 10.478 24.56 9.7802 23.6991 9.7802C22.8382 9.7802 22.1403 10.478 22.1403 11.3388C22.1403 12.1996 22.8382 12.8974 23.6991 12.8974Z"
        fill="#1B43BD" />
    <defs>
        <radialGradient id="paint0_radial_1863_8137" cx="0" cy="0" r="1" gradientUnits="userSpaceOnUse"
            gradientTransform="translate(19.0353 30.3594) rotate(-0.299468) scale(22.4768 48.748)">
            <stop stop-opacity="0.1" />
            <stop offset="0.764234" stop-opacity="0" />
        </radialGradient>
        <radialGradient id="paint1_radial_1863_8137" cx="0" cy="0" r="1" gradientUnits="userSpaceOnUse"
            gradientTransform="translate(9.73725 11.9769) rotate(42.0391) scale(20.6285 20.8588)">
            <stop offset="0.03125" stop-color="white" />
            <stop offset="0.588542" stop-color="#FAFFFE" />
            <stop offset="1" stop-color="#C0FFF0" />
        </radialGradient>
    </defs>
</svg>