<svg width="16" height="17" viewBox="0 0 16 17" fill="none" xmlns="http://www.w3.org/2000/svg" stroke="currentColor" stroke-linecap="round" stroke-linejoin="round">
<path d="M10.5 4.27767C11.4205 4.27767 12.1667 5.02386 12.1667 5.94434M15.5 5.94434C15.5 8.70576 13.2614 10.9443 10.5 10.9443C9.99486 10.9443 9.50721 10.8694 9.04756 10.7301L7.16667 12.611H5.5V14.2777H3.83333V15.9443H1.33333C0.873096 15.9443 0.5 15.5712 0.5 15.111V12.9562C0.5 12.7352 0.587797 12.5232 0.744077 12.3669L5.71423 7.39678C5.57491 6.93713 5.5 6.44948 5.5 5.94434C5.5 3.18291 7.73858 0.944336 10.5 0.944336C13.2614 0.944336 15.5 3.18291 15.5 5.94434Z" />
</svg>
