<svg width="27" height="27" viewBox="0 0 27 27" fill="currentColor" xmlns="http://www.w3.org/2000/svg" >
<path fill-rule="evenodd" clip-rule="evenodd" d="M26.4458 13.221C26.4458 20.5228 20.5257 26.442 13.2229 26.442C5.92009 26.442 0 20.5228 0 13.221C0 5.91925 5.92009 0 13.2229 0C20.5257 0 26.4458 5.91925 26.4458 13.221ZM18.0547 11.7955C18.4391 11.1849 19.186 10.9976 19.821 11.3333C20.4243 11.6496 20.6433 12.5253 20.2832 13.0994C20.1792 13.2649 19.9279 13.666 19.6084 14.1759L19.608 14.1766C18.6644 15.6825 17.1267 18.1366 17.0304 18.2783C16.7531 18.6894 16.3565 18.9156 15.8578 18.9254C15.7824 18.927 14.1307 18.9264 12.5476 18.9259L12.5374 18.9259C11.7746 18.9256 11.0286 18.9254 10.4835 18.9254C9.52245 18.9254 8.85097 17.8234 9.36918 16.9842C9.4656 16.828 10.2275 15.5953 11.0806 14.215L11.1011 14.1817C12.2234 12.366 13.4949 10.3087 13.6146 10.1146H11.2936C11.262 10.1633 8.64174 14.3132 8.43007 14.6514C8.04567 15.2619 7.29877 15.4492 6.66378 15.1135C6.06285 14.7949 5.84145 13.9191 6.20152 13.3475C6.30554 13.1819 6.55687 12.7808 6.8764 12.2709L6.87692 12.2701C7.82046 10.7642 9.35803 8.31027 9.45433 8.16856C9.73168 7.75746 10.1282 7.53123 10.627 7.5215C10.7109 7.51967 13.2555 7.52058 14.8494 7.52115L14.8569 7.52116C15.3858 7.52135 15.8091 7.5215 16.0013 7.5215L15.9891 7.53609C16.9185 7.58231 17.5535 8.65264 17.045 9.47485C16.9487 9.63077 16.1888 10.8604 15.3371 12.2384L15.3354 12.2412C14.2078 14.0657 12.9201 16.1491 12.7996 16.3444H15.1984V16.342C15.6731 15.5859 16.1483 14.8297 16.6235 14.0736L16.6266 14.0687C17.1028 13.311 17.5791 12.5532 18.0547 11.7955ZM6.95572 17.3272C6.95572 18.1292 6.30544 18.7794 5.50327 18.7794C4.7011 18.7794 4.05082 18.1292 4.05082 17.3272C4.05082 16.5251 4.7011 15.8749 5.50327 15.8749C6.30544 15.8749 6.95572 16.5251 6.95572 17.3272ZM20.945 10.5671C21.7471 10.5671 22.3974 9.91688 22.3974 9.11483C22.3974 8.31278 21.7471 7.66258 20.945 7.66258C20.1428 7.66258 19.4925 8.31278 19.4925 9.11483C19.4925 9.91688 20.1428 10.5671 20.945 10.5671Z"/>
</svg>
