<svg width="18" height="18" viewBox="0 0 18 18" fill="none" xmlns="http://www.w3.org/2000/svg" stroke="currentColor"
    stroke-linecap="round" stroke-linejoin="round">
    <path
        d="M8.52448 0.907777C8.67417 0.447146 9.32583 0.447146 9.47552 0.907777L11.1331 6.00855C11.2 6.21455 11.392 6.35402 11.6086 6.35403L16.9719 6.35423C17.4563 6.35425 17.6576 6.97402 17.2658 7.25873L12.9269 10.4114C12.7517 10.5387 12.6783 10.7644 12.7453 10.9704L14.4024 16.0713C14.5521 16.5319 14.0249 16.915 13.633 16.6303L9.29388 13.478C9.11864 13.3506 8.88136 13.3506 8.70612 13.478L4.36697 16.6303C3.97512 16.915 3.44791 16.5319 3.59756 16.0713L5.25473 10.9704C5.32165 10.7644 5.24833 10.5387 5.0731 10.4114L0.73419 7.25873C0.342359 6.97402 0.543736 6.35425 1.02808 6.35423L6.39142 6.35403C6.60802 6.35402 6.79998 6.21455 6.86692 6.00855L8.52448 0.907777Z" />
</svg>