<svg width="14" height="17" viewBox="0 0 14 17" fill="none" xmlns="http://www.w3.org/2000/svg" stroke="currentColor" stroke-linecap="round" stroke-linejoin="round">
<path d="M6.99996 7.94434C6.72382 7.94434 6.49996 8.16819 6.49996 8.44434C6.49996 8.72048 6.72382 8.94434 6.99996 8.94434V7.94434ZM9.49996 8.94434C9.7761 8.94434 9.99996 8.72048 9.99996 8.44434C9.99996 8.16819 9.7761 7.94434 9.49996 7.94434V8.94434ZM6.99996 11.2777C6.72382 11.2777 6.49996 11.5015 6.49996 11.7777C6.49996 12.0538 6.72382 12.2777 6.99996 12.2777V11.2777ZM9.49996 12.2777C9.7761 12.2777 9.99996 12.0538 9.99996 11.7777C9.99996 11.5015 9.7761 11.2777 9.49996 11.2777V12.2777ZM4.49996 7.94434C4.22382 7.94434 3.99996 8.16819 3.99996 8.44434C3.99996 8.72048 4.22382 8.94434 4.49996 8.94434V7.94434ZM4.50829 8.94434C4.78444 8.94434 5.00829 8.72048 5.00829 8.44434C5.00829 8.16819 4.78444 7.94434 4.50829 7.94434V8.94434ZM4.49996 11.2777C4.22382 11.2777 3.99996 11.5015 3.99996 11.7777C3.99996 12.0538 4.22382 12.2777 4.49996 12.2777V11.2777ZM4.50829 12.2777C4.78444 12.2777 5.00829 12.0538 5.00829 11.7777C5.00829 11.5015 4.78444 11.2777 4.50829 11.2777V12.2777ZM12.3333 4.27767V14.2777H13.3333V4.27767H12.3333ZM11.1666 15.4443H2.83329V16.4443H11.1666V15.4443ZM1.66663 14.2777V4.27767H0.666626V14.2777H1.66663ZM2.83329 3.111H4.49996V2.111H2.83329V3.111ZM9.49996 3.111H11.1666V2.111H9.49996V3.111ZM2.83329 15.4443C2.18896 15.4443 1.66663 14.922 1.66663 14.2777H0.666626C0.666626 15.4743 1.63668 16.4443 2.83329 16.4443V15.4443ZM12.3333 14.2777C12.3333 14.922 11.811 15.4443 11.1666 15.4443V16.4443C12.3632 16.4443 13.3333 15.4743 13.3333 14.2777H12.3333ZM13.3333 4.27767C13.3333 3.08105 12.3632 2.111 11.1666 2.111V3.111C11.811 3.111 12.3333 3.63334 12.3333 4.27767H13.3333ZM1.66663 4.27767C1.66663 3.63334 2.18896 3.111 2.83329 3.111V2.111C1.63668 2.111 0.666626 3.08105 0.666626 4.27767H1.66663ZM6.99996 8.94434H9.49996V7.94434H6.99996V8.94434ZM6.99996 12.2777H9.49996V11.2777H6.99996V12.2777ZM6.16663 1.44434H7.83329V0.444336H6.16663V1.44434ZM7.83329 3.77767H6.16663V4.77767H7.83329V3.77767ZM6.16663 3.77767C5.52229 3.77767 4.99996 3.25533 4.99996 2.611H3.99996C3.99996 3.80762 4.97001 4.77767 6.16663 4.77767V3.77767ZM8.99996 2.611C8.99996 3.25533 8.47763 3.77767 7.83329 3.77767V4.77767C9.02991 4.77767 9.99996 3.80762 9.99996 2.611H8.99996ZM7.83329 1.44434C8.47763 1.44434 8.99996 1.96667 8.99996 2.611H9.99996C9.99996 1.41439 9.02991 0.444336 7.83329 0.444336V1.44434ZM6.16663 0.444336C4.97001 0.444336 3.99996 1.41439 3.99996 2.611H4.99996C4.99996 1.96667 5.52229 1.44434 6.16663 1.44434V0.444336ZM4.49996 8.94434H4.50829V7.94434H4.49996V8.94434ZM4.49996 12.2777H4.50829V11.2777H4.49996V12.2777Z" />
</svg>
