<svg width="16" height="17" viewBox="0 0 16 17" fill="none" xmlns="http://www.w3.org/2000/svg">
<path d="M0.5 8.44434L2.16667 6.77767M2.16667 6.77767L8 0.944336L13.8333 6.77767M2.16667 6.77767V15.111C2.16667 15.5712 2.53976 15.9443 3 15.9443H5.5M13.8333 6.77767L15.5 8.44434M13.8333 6.77767V15.111C13.8333 15.5712 13.4602 15.9443 13 15.9443H10.5M5.5 15.9443C5.96024 15.9443 6.33333 15.5712 6.33333 15.111V11.7777C6.33333 11.3174 6.70643 10.9443 7.16667 10.9443H8.83333C9.29357 10.9443 9.66667 11.3174 9.66667 11.7777V15.111C9.66667 15.5712 10.0398 15.9443 10.5 15.9443M5.5 15.9443H10.5" stroke="#1B43BD" stroke-linecap="round" stroke-linejoin="round"/>
</svg>
