<svg width="14" height="13" viewBox="0 0 14 13" fill="none" xmlns="http://www.w3.org/2000/svg">
<path d="M1 11.1666V5.21349C1 4.76768 1.2228 4.35137 1.59373 4.10409L6.2604 0.992976C6.70827 0.694399 7.29173 0.694399 7.7396 0.992976L12.4063 4.10409C12.7772 4.35137 13 4.76768 13 5.21349V11.1666M1 11.1666C1 11.903 1.59695 12.4999 2.33333 12.4999H11.6667C12.403 12.4999 13 11.903 13 11.1666M1 11.1666L5.5 8.16658M13 11.1666L8.5 8.16658M1 5.16658L5.5 8.16658M13 5.16658L8.5 8.16658M8.5 8.16658L7.7396 8.67351C7.29173 8.97209 6.70827 8.97209 6.2604 8.67351L5.5 8.16658" stroke="#1B43BD" stroke-linecap="round" stroke-linejoin="round"/>
</svg>
