<svg width="18" height="22" viewBox="0 0 18 22" fill="none" xmlns="http://www.w3.org/2000/svg">
<path d="M10.685 0.989033C9.97072 0.790259 9.40833 1.29608 9.21441 1.78736L9.00432 2.32066C7.38342 6.43513 5.90392 10.1908 2.04559 12.1447C1.15595 12.5955 0.536198 13.57 0.713963 14.6374L1.0501 16.6551C1.14423 17.2205 1.39683 17.7477 1.77857 18.1753C2.16031 18.603 2.65553 18.9136 3.20673 19.0711L9.42045 20.8455C10.1435 21.052 10.9014 21.1069 11.6467 21.0065C12.3919 20.9061 13.1083 20.6528 13.751 20.2623C14.3936 19.8718 14.9485 19.3527 15.3809 18.7375C15.8134 18.1223 16.1139 17.4243 16.2636 16.6874L17.2559 11.802C17.3454 11.3619 17.3359 10.9074 17.2281 10.4714C17.1203 10.0354 16.917 9.62881 16.6328 9.28104C16.3486 8.93327 15.9906 8.65303 15.5848 8.46059C15.179 8.26816 14.7355 8.16833 14.2864 8.16835H12.5354C12.8142 6.95308 12.9426 5.56893 12.8158 4.34639C12.6663 2.91618 12.1217 1.38981 10.685 0.989033Z" fill="#69C87E"/>
</svg>
