<svg width="21" height="13" viewBox="0 0 21 13" fill="none" xmlns="http://www.w3.org/2000/svg">
<path fill-rule="evenodd" clip-rule="evenodd" d="M15.5972 5.21576C16.0098 4.56048 16.8113 4.35946 17.4928 4.71973C18.1404 5.05912 18.3754 5.99897 17.9889 6.6151C17.8773 6.79275 17.6076 7.22317 17.2647 7.77041C16.2521 9.38651 14.6013 12.0212 14.4979 12.1733C14.2003 12.6145 13.7747 12.8573 13.2394 12.8677C13.1585 12.8695 11.3859 12.8689 9.68689 12.8683L9.67591 12.8683C8.85727 12.868 8.05661 12.8677 7.47155 12.8677C6.44018 12.8677 5.71952 11.6851 6.27568 10.7844C6.37916 10.6168 7.19687 9.29376 8.1124 7.81242L8.13448 7.7767C9.33888 5.82797 10.7035 3.62003 10.832 3.41177H8.34104C8.30709 3.46399 5.49497 7.91784 5.26781 8.28072C4.85526 8.93601 4.05366 9.13703 3.37217 8.77676C2.72723 8.43475 2.48963 7.4949 2.87607 6.88139C2.9877 6.70372 3.25744 6.27324 3.60036 5.72593C4.613 4.1098 6.26371 1.4753 6.36707 1.32322C6.66473 0.882007 7.09033 0.639213 7.6256 0.62877C7.71564 0.626813 10.4466 0.627789 12.1572 0.628402L12.1652 0.628406C12.7329 0.628607 13.1872 0.62877 13.3935 0.62877L13.3804 0.644434C14.3778 0.694037 15.0593 1.84274 14.5136 2.72516C14.4103 2.8925 13.5947 4.21218 12.6806 5.69106L12.6788 5.69403C11.4686 7.65215 10.0867 9.88813 9.95729 10.0978H12.5318V10.0952C13.0412 9.28366 13.5512 8.47217 14.0612 7.66067L14.0646 7.65537C14.5757 6.84217 15.0868 6.02897 15.5972 5.21576ZM3.68549 11.1525C3.68549 12.0133 2.98759 12.7111 2.12668 12.7111C1.26577 12.7111 0.567871 12.0133 0.567871 11.1525C0.567871 10.2917 1.26577 9.59391 2.12668 9.59391C2.98759 9.59391 3.68549 10.2917 3.68549 11.1525ZM18.6991 3.89736C19.56 3.89736 20.2579 3.19956 20.2579 2.33877C20.2579 1.47799 19.56 0.780187 18.6991 0.780187C17.8382 0.780187 17.1403 1.47799 17.1403 2.33877C17.1403 3.19956 17.8382 3.89736 18.6991 3.89736Z" fill="#1B43BD"/>
</svg>
