<svg width="16" height="17" viewBox="0 0 16 17" fill="none" xmlns="http://www.w3.org/2000/svg">
<path d="M0.5 8.44444L2.16667 6.77778M2.16667 6.77778L8 0.944443L13.8333 6.77778M2.16667 6.77778V15.1111C2.16667 15.5713 2.53976 15.9444 3 15.9444H5.5M13.8333 6.77778L15.5 8.44444M13.8333 6.77778V15.1111C13.8333 15.5713 13.4602 15.9444 13 15.9444H10.5M5.5 15.9444C5.96024 15.9444 6.33333 15.5713 6.33333 15.1111V11.7778C6.33333 11.3175 6.70643 10.9444 7.16667 10.9444H8.83333C9.29357 10.9444 9.66667 11.3175 9.66667 11.7778V15.1111C9.66667 15.5713 10.0398 15.9444 10.5 15.9444M5.5 15.9444H10.5" stroke="#1B43BD" stroke-linecap="round" stroke-linejoin="round"/>
</svg>
