<svg width="26" height="27" viewBox="0 0 26 27" fill="none" xmlns="http://www.w3.org/2000/svg">
<path d="M17 6.83333C18.4728 6.83333 19.6667 8.02724 19.6667 9.5M25 9.5C25 13.9183 21.4183 17.5 17 17.5C16.1918 17.5 15.4115 17.3801 14.6761 17.1572L11.6667 20.1667H9V22.8333H6.33333V25.5H2.33333C1.59695 25.5 1 24.903 1 24.1667V20.719C1 20.3653 1.14047 20.0262 1.39052 19.7761L9.34276 11.8239C9.11985 11.0885 9 10.3082 9 9.5C9 5.08172 12.5817 1.5 17 1.5C21.4183 1.5 25 5.08172 25 9.5Z" stroke="#69C87E" stroke-width="2" stroke-linecap="round" stroke-linejoin="round"/>
</svg>
