<svg width="22" height="27" viewBox="0 0 22 27" fill="none" xmlns="http://www.w3.org/2000/svg">
<path d="M11 12.5C10.4477 12.5 9.99999 12.9477 9.99999 13.5C9.99999 14.0523 10.4477 14.5 11 14.5V12.5ZM15 14.5C15.5523 14.5 16 14.0523 16 13.5C16 12.9477 15.5523 12.5 15 12.5V14.5ZM11 17.8333C10.4477 17.8333 9.99999 18.281 9.99999 18.8333C9.99999 19.3856 10.4477 19.8333 11 19.8333V17.8333ZM15 19.8333C15.5523 19.8333 16 19.3856 16 18.8333C16 18.281 15.5523 17.8333 15 17.8333V19.8333ZM6.99999 12.5C6.44771 12.5 5.99999 12.9477 5.99999 13.5C5.99999 14.0523 6.44771 14.5 6.99999 14.5V12.5ZM7.01332 14.5C7.56561 14.5 8.01332 14.0523 8.01332 13.5C8.01332 12.9477 7.56561 12.5 7.01332 12.5V14.5ZM6.99999 17.8333C6.44771 17.8333 5.99999 18.281 5.99999 18.8333C5.99999 19.3856 6.44771 19.8333 6.99999 19.8333V17.8333ZM7.01332 19.8333C7.56561 19.8333 8.01332 19.3856 8.01332 18.8333C8.01332 18.281 7.56561 17.8333 7.01332 17.8333V19.8333ZM19.3333 6.83333V22.8333H21.3333V6.83333H19.3333ZM17.6667 24.5H4.33332V26.5H17.6667V24.5ZM2.66666 22.8333V6.83333H0.666656V22.8333H2.66666ZM4.33332 5.16667H6.99999V3.16667H4.33332V5.16667ZM15 5.16667H17.6667V3.16667H15V5.16667ZM4.33332 24.5C3.41285 24.5 2.66666 23.7538 2.66666 22.8333H0.666656C0.666656 24.8584 2.30828 26.5 4.33332 26.5V24.5ZM19.3333 22.8333C19.3333 23.7538 18.5871 24.5 17.6667 24.5V26.5C19.6917 26.5 21.3333 24.8584 21.3333 22.8333H19.3333ZM21.3333 6.83333C21.3333 4.80829 19.6917 3.16667 17.6667 3.16667V5.16667C18.5871 5.16667 19.3333 5.91286 19.3333 6.83333H21.3333ZM2.66666 6.83333C2.66666 5.91286 3.41285 5.16667 4.33332 5.16667V3.16667C2.30828 3.16667 0.666656 4.80829 0.666656 6.83333H2.66666ZM11 14.5H15V12.5H11V14.5ZM11 19.8333H15V17.8333H11V19.8333ZM9.66666 2.5H12.3333V0.5H9.66666V2.5ZM12.3333 5.83333H9.66666V7.83333H12.3333V5.83333ZM9.66666 5.83333C8.74618 5.83333 7.99999 5.08714 7.99999 4.16667H5.99999C5.99999 6.19171 7.64161 7.83333 9.66666 7.83333V5.83333ZM14 4.16667C14 5.08714 13.2538 5.83333 12.3333 5.83333V7.83333C14.3584 7.83333 16 6.19171 16 4.16667H14ZM12.3333 2.5C13.2538 2.5 14 3.24619 14 4.16667H16C16 2.14162 14.3584 0.5 12.3333 0.5V2.5ZM9.66666 0.5C7.64161 0.5 5.99999 2.14162 5.99999 4.16667H7.99999C7.99999 3.24619 8.74618 2.5 9.66666 2.5V0.5ZM6.99999 14.5H7.01332V12.5H6.99999V14.5ZM6.99999 19.8333H7.01332V17.8333H6.99999V19.8333Z" fill="#E48888"/>
</svg>
