<svg width="103" height="18" viewBox="0 0 103 18" fill="none" xmlns="http://www.w3.org/2000/svg">
<path d="M2.65924 2.23448H1.92692C0.766423 2.23448 0.138733 2.86451 0.138733 4.02241V15.8082C0.138733 16.9685 0.768856 17.5961 1.92692 17.5961H2.65924C3.81974 17.5961 4.44743 16.9661 4.44743 15.8082V4.02485C4.44743 2.86451 3.8173 2.23448 2.65924 2.23448Z" fill="#1B43BD"/>
<path d="M17.0986 2.23448H8.78288C7.62481 2.23448 6.99468 2.86451 6.99468 4.02241V4.24621C6.99468 5.40654 7.62481 6.03415 8.78288 6.03415H13.6122L7.81215 13.1226C7.24284 13.8184 6.99225 14.4581 6.99225 15.346V15.8398C6.99225 16.971 7.62238 17.5986 8.78045 17.5986H17.0962C18.2567 17.5986 18.8843 16.9685 18.8843 15.8106V15.6039C18.8843 14.4435 18.2542 13.8159 17.0962 13.8159H12.3179L18.0815 6.70797C18.6484 6.00982 18.8843 5.37249 18.8843 4.4846V3.99079C18.8892 2.86451 18.2591 2.23448 17.0986 2.23448Z" fill="#1B43BD"/>
<path d="M24.0081 2.23448H23.2758C22.1153 2.23448 21.4876 2.86451 21.4876 4.02241V15.8082C21.4876 16.9685 22.1177 17.5961 23.2758 17.5961H24.0081C25.1686 17.5961 25.7963 16.9661 25.7963 15.8082V4.02485C25.7963 2.86451 25.1661 2.23448 24.0081 2.23448Z" fill="#1B43BD"/>
<path d="M35.6861 4.31431C37.4694 4.31431 38.8489 5.16328 39.7174 6.81742C40.0361 7.43286 40.3548 7.70774 41.0117 7.58125L41.3523 7.518C42.053 7.39151 42.4131 6.90256 42.1382 6.20198C40.929 3.14668 38.1895 2.04229 35.6861 2.04229C32.0148 2.04229 28.4481 4.50405 28.4481 9.95787C28.4481 15.5601 32.0148 17.8516 35.6861 17.8516C38.1263 17.8516 40.8001 16.791 42.0311 13.9059C42.4131 12.9937 42.0944 12.3783 41.3937 12.2518L41.0531 12.1885C40.4157 12.062 40.0556 12.3369 39.7588 12.9524C38.9097 14.6916 37.5083 15.5625 35.6836 15.5625C32.8177 15.5625 30.9711 13.4608 30.9711 9.9603C30.9735 6.4793 32.8639 4.31431 35.6861 4.31431Z" fill="#1B43BD"/>
<path d="M56.5678 7.30638C56.5678 3.61374 54.5509 2.23448 49.7751 2.23448H46.0819C45.4031 2.23448 45.0212 2.61639 45.0212 3.29508V16.5355C45.0212 17.2142 45.4031 17.5961 46.0819 17.5961H46.442C47.1208 17.5961 47.5027 17.2142 47.5027 16.5355V12.4634H49.7313C50.0305 12.4634 50.32 12.4561 50.5998 12.444L53.5291 16.898C53.8478 17.365 54.2297 17.5986 54.8015 17.5986H55.2686C56.3293 17.5986 56.5215 17.1534 55.9474 16.3044L53.0838 12.0742C55.434 11.4126 56.5678 9.8776 56.5678 7.30638ZM49.7118 10.4055H47.4833V4.35811H49.7118C52.6191 4.35811 54.0838 4.95165 54.0838 7.41341C54.0838 9.87517 52.6191 10.4055 49.7118 10.4055Z" fill="#1B43BD"/>
<path d="M68.2385 2.23447H63.2583L63.4432 1.92067C63.8665 1.17874 63.6986 0.648438 63.0612 0.648438H62.8058C62.2121 0.648438 61.8302 0.903857 61.5747 1.43416L61.1952 2.2369H60.3436C59.6649 2.2369 59.2829 2.61882 59.2829 3.2975V16.538C59.2829 17.2167 59.6649 17.5986 60.3436 17.5986H68.2385C68.9172 17.5986 69.2992 17.2167 69.2992 16.538V16.4309C69.2992 15.7522 68.9172 15.3703 68.2385 15.3703H61.745V10.8725H67.8565C68.5353 10.8725 68.9172 10.5125 68.9172 9.83381V9.81192C68.9172 9.13323 68.5353 8.75132 67.8565 8.75132H61.745V4.4627H68.2385C68.9172 4.4627 69.2992 4.08079 69.2992 3.4021V3.29507C69.2992 2.61638 68.9172 2.23447 68.2385 2.23447Z" fill="#1B43BD"/>
<path d="M76.0262 2.23448H73.0338C72.355 2.23448 71.973 2.61639 71.973 3.29507V16.5355C71.973 17.2142 72.355 17.5961 73.0338 17.5961H76.0262C82.2667 17.5961 84.7701 15.0492 84.7701 9.91409C84.7701 4.74002 82.2667 2.23448 76.0262 2.23448ZM76.1114 15.3703H74.4351V4.44325H76.0895C80.5904 4.44325 82.2861 6.11929 82.2861 9.89706C82.2886 13.6943 80.5904 15.3703 76.1114 15.3703Z" fill="#1B43BD"/>
<path d="M88.9085 2.23448H88.5679C87.8891 2.23448 87.5072 2.61639 87.5072 3.29507V16.5355C87.5072 17.2142 87.8891 17.5961 88.5679 17.5961H88.9085C89.5873 17.5961 89.9693 17.2142 89.9693 16.5355V3.29507C89.9693 2.61639 89.5873 2.23448 88.9085 2.23448Z" fill="#1B43BD"/>
<path d="M101.939 2.23448H93.3024C92.6236 2.23448 92.2416 2.61639 92.2416 3.29508V3.40211C92.2416 4.08079 92.6236 4.46271 93.3024 4.46271H96.4019V16.538C96.4019 17.2167 96.7839 17.5986 97.4626 17.5986H97.8033C98.482 17.5986 98.864 17.2167 98.864 16.538V4.46271H101.942C102.62 4.46271 103.002 4.08079 103.002 3.40211V3.29508C103 2.61639 102.618 2.23448 101.939 2.23448Z" fill="#1B43BD"/>
</svg>
