<svg width="16" height="17" viewBox="0 0 16 17" fill="none" xmlns="http://www.w3.org/2000/svg">
<path d="M12.7141 13.9918C10.1106 16.5953 5.88946 16.5953 3.28596 13.9918C1.98422 12.6901 1.33335 10.9839 1.33334 9.27778C1.33334 7.57162 1.98421 5.86547 3.28596 4.56372C3.28596 4.56372 3.83338 5.9444 5.50005 6.77774C5.50005 5.11107 5.91671 2.61107 7.98824 0.944443C9.66667 2.61111 11.4093 3.25898 12.7141 4.56372C14.0158 5.86547 14.6667 7.57162 14.6667 9.27778C14.6667 10.9839 14.0158 12.6901 12.7141 13.9918Z" stroke="#E48888" stroke-linecap="round" stroke-linejoin="round"/>
<path d="M6.23224 11.8788C7.20855 12.8551 8.79146 12.8551 9.76778 11.8788C10.2559 11.3907 10.5 10.7509 10.5 10.1111C10.5 9.47128 10.2559 8.83147 9.76778 8.3433C9.28271 7.85823 8.6479 7.61417 8.01214 7.6111L7.16663 10.1111L5.50001 10.1111C5.50002 10.7509 5.74409 11.3907 6.23224 11.8788Z" stroke="#E48888" stroke-linecap="round" stroke-linejoin="round"/>
</svg>
