<svg width="24" height="24" viewBox="0 0 24 24" fill="none" xmlns="http://www.w3.org/2000/svg">
<path fill-rule="evenodd" clip-rule="evenodd" d="M23.3345 11.9989C23.3345 18.4458 18.1109 23.6721 11.6673 23.6721C5.22361 23.6721 0 18.4458 0 11.9989C0 5.55205 5.22361 0.325806 11.6673 0.325806C18.1109 0.325806 23.3345 5.55205 23.3345 11.9989ZM15.9306 10.7403C16.2698 10.2013 16.9288 10.0359 17.4891 10.3323C18.0215 10.6115 18.2147 11.3847 17.897 11.8915C17.8052 12.0377 17.5835 12.3918 17.3016 12.842L17.3011 12.8427C16.4686 14.1722 15.1118 16.339 15.0269 16.4642C14.7821 16.8271 14.4322 17.0269 13.9921 17.0355C13.9256 17.0369 12.4683 17.0364 11.0714 17.0359L11.0624 17.0359C10.3894 17.0357 9.73111 17.0355 9.25011 17.0355C8.40216 17.0355 7.80968 16.0625 8.26692 15.3215C8.352 15.1837 9.02428 14.0952 9.77698 12.8766L9.79513 12.8472C10.7853 11.244 11.9072 9.42757 12.0129 9.25624H9.96495C9.93705 9.29919 7.62506 12.9633 7.4383 13.2618C7.09912 13.8009 6.44009 13.9663 5.8798 13.6699C5.34957 13.3885 5.15422 12.6153 5.47193 12.1106C5.56372 11.9645 5.78547 11.6103 6.06741 11.16L6.06787 11.1593C6.9004 9.82976 8.25708 7.66314 8.34206 7.53802C8.58678 7.17505 8.93669 6.9753 9.37676 6.96671C9.45078 6.9651 11.696 6.96591 13.1024 6.96641L13.109 6.96641C13.5757 6.96658 13.9492 6.96671 14.1188 6.96671L14.1081 6.9796C14.9281 7.02041 15.4884 7.96543 15.0397 8.69137C14.9548 8.82904 14.2842 9.91471 13.5328 11.1314L13.5312 11.1338C12.5363 12.7447 11.4001 14.5842 11.2938 14.7567H13.4104V14.7545C13.8292 14.0869 14.2485 13.4193 14.6678 12.7517L14.6705 12.7474C15.0907 12.0784 15.5109 11.4094 15.9306 10.7403ZM6.1374 15.6244C6.1374 16.3325 5.56362 16.9066 4.85583 16.9066C4.14803 16.9066 3.57425 16.3325 3.57425 15.6244C3.57425 14.9162 4.14803 14.3422 4.85583 14.3422C5.56362 14.3422 6.1374 14.9162 6.1374 15.6244ZM18.4809 9.65572C19.1887 9.65572 19.7624 9.08165 19.7624 8.3735C19.7624 7.66535 19.1887 7.09128 18.4809 7.09128C17.7731 7.09128 17.1993 7.66535 17.1993 8.3735C17.1993 9.08165 17.7731 9.65572 18.4809 9.65572Z" fill="white"/>
</svg>
