<svg width="11" height="17" viewBox="0 0 11 17" fill="none" xmlns="http://www.w3.org/2000/svg">
<path d="M9.31959 1.30238C8.40169 0.384476 6.91347 0.384475 5.99556 1.30238L0.678257 6.61968C-0.226086 7.52403 -0.226085 8.99026 0.678258 9.8946L1.12885 10.3452C1.78434 11.0007 1.78434 12.0634 1.12885 12.7189C0.473362 13.3744 0.473361 14.4372 1.12885 15.0927L1.69578 15.6596C2.66438 16.6282 4.23479 16.6282 5.20338 15.6596L9.26654 11.5964C10.2216 10.6414 10.218 9.08944 9.26299 8.1344C8.31187 7.18328 8.30834 5.63768 9.25946 4.68656L9.31959 4.62642C10.2375 3.70851 10.2375 2.22029 9.31959 1.30238Z" fill="#6BFFDC"/>
</svg>
