<svg width="91" height="17" viewBox="0 0 91 17" fill="none" xmlns="http://www.w3.org/2000/svg">
<path d="M2.46402 2.33056H1.81787C0.793895 2.33056 0.240051 2.88683 0.240051 3.90917V14.3151C0.240051 15.3396 0.796042 15.8937 1.81787 15.8937H2.46402C3.488 15.8937 4.04184 15.3375 4.04184 14.3151V3.91132C4.04184 2.88683 3.48585 2.33056 2.46402 2.33056Z" fill="white"/>
<path d="M15.2046 2.33056H7.86724C6.84541 2.33056 6.28942 2.88683 6.28942 3.90917V4.10676C6.28942 5.13125 6.84541 5.68537 7.86724 5.68537H12.1284L7.01071 11.944C6.50839 12.5582 6.28728 13.1231 6.28728 13.907V14.343C6.28728 15.3417 6.84327 15.8959 7.86509 15.8959H15.2025C16.2265 15.8959 16.7803 15.3396 16.7803 14.3173V14.1347C16.7803 13.1102 16.2243 12.5561 15.2025 12.5561H10.9864L16.0719 6.28031C16.5721 5.6639 16.7803 5.10118 16.7803 4.31724V3.88125C16.7846 2.88683 16.2286 2.33056 15.2046 2.33056Z" fill="white"/>
<path d="M21.3012 2.33056H20.6551C19.6311 2.33056 19.0773 2.88683 19.0773 3.90917V14.3151C19.0773 15.3396 19.6332 15.8937 20.6551 15.8937H21.3012C22.3252 15.8937 22.879 15.3375 22.879 14.3151V3.91132C22.879 2.88683 22.3231 2.33056 21.3012 2.33056Z" fill="white"/>
<path d="M31.6054 4.16689C33.1789 4.16689 34.3961 4.91646 35.1624 6.37695C35.4436 6.92033 35.7249 7.16303 36.3045 7.05135L36.605 6.99551C37.2232 6.88382 37.541 6.45212 37.2984 5.83356C36.2315 3.13596 33.8143 2.16088 31.6054 2.16088C28.366 2.16088 25.2189 4.33442 25.2189 9.14972C25.2189 14.096 28.366 16.1192 31.6054 16.1192C33.7585 16.1192 36.1177 15.1828 37.2039 12.6356C37.541 11.8301 37.2597 11.2867 36.6415 11.1751L36.341 11.1192C35.7785 11.0075 35.4608 11.2502 35.1989 11.7936C34.4497 13.3293 33.2132 14.0982 31.6032 14.0982C29.0744 14.0982 27.4451 12.2425 27.4451 9.15187C27.4472 6.07841 29.1152 4.16689 31.6054 4.16689Z" fill="white"/>
<path d="M50.0304 6.80866C50.0304 3.54834 48.2508 2.33056 44.0368 2.33056H40.7782C40.1792 2.33056 39.8422 2.66776 39.8422 3.26698V14.9573C39.8422 15.5565 40.1792 15.8937 40.7782 15.8937H41.0959C41.6948 15.8937 42.0318 15.5565 42.0318 14.9573V11.3619H43.9982C44.2622 11.3619 44.5177 11.3555 44.7646 11.3447L47.3492 15.2773C47.6304 15.6897 47.9674 15.8959 48.4719 15.8959H48.8841C49.82 15.8959 49.9896 15.5028 49.483 14.7533L46.9563 11.0183C49.03 10.4341 50.0304 9.07885 50.0304 6.80866ZM43.981 9.54492H42.0146V4.20556H43.981C46.5463 4.20556 47.8386 4.72962 47.8386 6.90316C47.8386 9.0767 46.5463 9.54492 43.981 9.54492Z" fill="white"/>
<path d="M60.3281 2.33055H55.9338L56.0969 2.05349C56.4704 1.39842 56.3223 0.930206 55.7599 0.930206H55.5345C55.0107 0.930206 54.6737 1.15572 54.4483 1.62394L54.1134 2.3327H53.362C52.7631 2.3327 52.4261 2.6699 52.4261 3.26913V14.9594C52.4261 15.5587 52.7631 15.8959 53.362 15.8959H60.3281C60.927 15.8959 61.264 15.5587 61.264 14.9594V14.8649C61.264 14.2657 60.927 13.9285 60.3281 13.9285H54.5985V9.95728H59.991C60.5899 9.95728 60.927 9.63941 60.927 9.04019V9.02085C60.927 8.42163 60.5899 8.08443 59.991 8.08443H54.5985V4.29791H60.3281C60.927 4.29791 61.264 3.96071 61.264 3.36148V3.26698C61.264 2.66775 60.927 2.33055 60.3281 2.33055Z" fill="white"/>
<path d="M67.1996 2.33056H64.5592C63.9603 2.33056 63.6232 2.66776 63.6232 3.26698V14.9573C63.6232 15.5565 63.9603 15.8937 64.5592 15.8937H67.1996C72.7059 15.8937 74.9148 13.645 74.9148 9.11107C74.9148 4.54276 72.7059 2.33056 67.1996 2.33056ZM67.2748 13.9285H65.7957V4.28073H67.2554C71.2268 4.28073 72.7231 5.76055 72.7231 9.09603C72.7252 12.4487 71.2268 13.9285 67.2748 13.9285Z" fill="white"/>
<path d="M78.5664 2.33056H78.2658C77.6669 2.33056 77.3299 2.66776 77.3299 3.26698V14.9573C77.3299 15.5565 77.6669 15.8937 78.2658 15.8937H78.5664C79.1653 15.8937 79.5023 15.5565 79.5023 14.9573V3.26698C79.5023 2.66776 79.1653 2.33056 78.5664 2.33056Z" fill="white"/>
<path d="M90.064 2.33056H82.4433C81.8443 2.33056 81.5073 2.66776 81.5073 3.26698V3.36149C81.5073 3.96071 81.8443 4.29791 82.4433 4.29791H85.1782V14.9594C85.1782 15.5587 85.5152 15.8959 86.1141 15.8959H86.4146C87.0136 15.8959 87.3506 15.5587 87.3506 14.9594V4.29791H90.0662C90.6651 4.29791 91.0021 3.96071 91.0021 3.36149V3.26698C91 2.66776 90.6629 2.33056 90.064 2.33056Z" fill="white"/>
</svg>
